<svg xmlns="http://www.w3.org/2000/svg" xmlns:xlink="http://www.w3.org/1999/xlink" viewBox="0 0 459.44 600.91"><defs><style>.cls-1,.cls-5,.cls-6{fill:none;}.cls-2{fill:#2b3149;}.cls-3{fill:#90a77b;}.cls-4{fill:url(#Nova_amostra_de_padrão_3);}.cls-5{stroke-linejoin:round;}.cls-5,.cls-6{stroke-width:30px;stroke:url(#Nova_amostra_de_padrão_3-37);}.cls-6{stroke-linejoin:bevel;}</style><pattern id="Nova_amostra_de_padrão_3" data-name="Nova amostra de padrão 3" width="48" height="48" patternTransform="translate(0 -22)" patternUnits="userSpaceOnUse" viewBox="0 0 48 48"><rect class="cls-1" width="48" height="48"/><rect class="cls-2" width="48" height="48"/></pattern><pattern id="Nova_amostra_de_padrão_3-37" data-name="Nova amostra de padrão 3" width="48" height="48" patternTransform="translate(-20 -22)" patternUnits="userSpaceOnUse" viewBox="0 0 48 48"><rect class="cls-1" width="48" height="48"/><rect class="cls-2" width="48" height="48"/></pattern></defs><g id="Camada_2" data-name="Camada 2"><g id="Camada_1-2" data-name="Camada 1"><path class="cls-3" d="M180.72,198.93c33-22,80.06,8.37,99-12,20.71-22.27,43.1-19.45,62-15,55.8,13.15,52.93,96,11,128-70.9,54.15-11.72,58-104,58-48.24,0-74-22-40-69C230.25,259.17,133.62,230.33,180.72,198.93Z"/><path class="cls-4" d="M269.79,376.74a5.46,5.46,0,0,1-.48-10.9,116.75,116.75,0,0,0,41.82-14.07,92.6,92.6,0,0,0,30-26.58,81.35,81.35,0,0,1-42.38-9.3c-14.14-7.53-26.1-19.53-34.59-34.7a108.15,108.15,0,0,1-13.39-56.56c.86-20.77,7.65-39.21,19.64-53.33a5.43,5.43,0,0,1,3.61-1.9c20.65-2.1,46.45,9,65.72,28.26a102.8,102.8,0,0,1,23.16,35,96.35,96.35,0,0,1,6.23,45.67c-2.09,20.56-8.6,38.55-19.36,53.49a103.69,103.69,0,0,1-33.61,29.69,125.21,125.21,0,0,1-45.88,15.24A4,4,0,0,1,269.79,376.74Zm1.8-188.07c-13.89,24.7-13.48,59.37,2.1,87.19,15.41,27.54,41.67,41.22,72.5,38-.73-11.22-9.8-20.62-21.86-33.1C306.09,261.89,281.65,236.58,271.59,188.67Zm9.47-8.56c8.5,48.94,32.06,73.33,51.13,93.08,8.85,9.16,17,17.56,21.41,26.91a112.52,112.52,0,0,0,4.67-22.92c3.66-36-14.87-60.42-26.25-71.79C317.1,190.47,297.37,180.83,281.06,180.11Z"/><path class="cls-4" d="M259.46,359.63c-1.49,0-3,0-4.49-.13-16.71-.92-33.86-7-51-18a5.59,5.59,0,0,1-1.66-1.2,5.45,5.45,0,0,1-1.54-5.14c7-31,21.06-72,61.7-71.41a5.48,5.48,0,0,1,5.24,4.24c2.38,10.35,18.63,29.17,21.67,31.64a5.44,5.44,0,0,1,2.06,4.61c-.79,13.22-15.75,19.23-20.66,21.21-10.6,4.26-24.63,7.42-39.48,10.78-3.47.78-7,1.57-10.53,2.4,24.11,12.37,47.25,13.45,68.94,3.2a86.22,86.22,0,0,0,30.09-24,5.46,5.46,0,0,1,8.85,6.39,95.7,95.7,0,0,1-33.84,27.28A81,81,0,0,1,259.46,359.63Zm-1-84.89c-21.38,1.46-35.5,18.51-45,54.36,5.19-1.25,10.36-2.41,15.42-3.56,23.31-5.26,47.37-10.69,51.14-19.84C274.5,299.92,263,286.07,258.46,274.74Z"/><path class="cls-4" d="M227.46,290.89a5.69,5.69,0,0,1-.91-.08,63.83,63.83,0,0,1-26.1-12.07c-11.51-9-24.51-26.18-21.08-57a5.49,5.49,0,0,1,1.82-3.59c17.62-16.31,41.21-26.25,60.13-25.33,9.31.46,16.77,3.58,21.6,9a5.47,5.47,0,0,1,1.26,4.7c-3.29,16.26-5.26,34.61,2.53,58.58a5.47,5.47,0,0,1-4.59,7.11c-11.25,1.26-28-2.35-42.58-9.19-9.08-4.25-20.16-11-29-21.34a44,44,0,0,0,16.65,28.45,53.13,53.13,0,0,0,21.19,9.91,5.46,5.46,0,0,1-.9,10.84Zm-36-67.26c13.06,25.88,45.5,36.43,62.77,37.75-5.7-21.5-4.23-38.67-1.34-54-3.57-2.66-8.4-3.47-12.1-3.65C225.86,203,206.46,210.9,191.46,223.63Z"/><path class="cls-4" d="M292.18,231.7a5.48,5.48,0,0,1-5.2-7.14l14.56-45.13a5.46,5.46,0,0,1,10.39,3.35l-14.55,45.13A5.48,5.48,0,0,1,292.18,231.7Z"/><path class="cls-4" d="M306.73,258.27a5.41,5.41,0,0,1-2.26-.5,5.46,5.46,0,0,1-2.7-7.23l24.75-54.31a5.46,5.46,0,0,1,9.94,4.53l-24.75,54.31A5.47,5.47,0,0,1,306.73,258.27Z"/><path class="cls-4" d="M326,280.1a5.36,5.36,0,0,1-2.5-.61,5.46,5.46,0,0,1-2.34-7.36l26.57-51.32a5.46,5.46,0,0,1,9.7,5l-26.57,51.32A5.45,5.45,0,0,1,326,280.1Z"/><path class="cls-4" d="M285.62,305.58a5.46,5.46,0,0,1-.92-10.84L338,285.53a5.46,5.46,0,0,1,1.87,10.76l-53.29,9.21A6.07,6.07,0,0,1,285.62,305.58Z"/><path class="cls-4" d="M265.24,274.64a5.46,5.46,0,0,1-.26-10.91l53.14-2.55a5.46,5.46,0,1,1,.53,10.91l-53.14,2.55Z"/><path class="cls-4" d="M301.65,251a6.38,6.38,0,0,1-.87-.07l-45.5-7.28A5.46,5.46,0,0,1,257,232.86l45.5,7.27a5.47,5.47,0,0,1-.86,10.86Z"/><path class="cls-4" d="M272.16,324.14a5.45,5.45,0,0,1-3.5-1.27L226.07,287.2a5.46,5.46,0,1,1,7-8.37l42.59,35.67a5.46,5.46,0,0,1-3.51,9.64Z"/><path class="cls-4" d="M248.56,329.86a5.41,5.41,0,0,1-3.39-1.19l-27.73-22.1a5.46,5.46,0,1,1,6.8-8.54L252,320.13a5.46,5.46,0,0,1-3.41,9.73Z"/><path class="cls-4" d="M256.15,356.9l-.5,0a5.46,5.46,0,0,1-4.94-5.94l2.55-27.66a5.46,5.46,0,1,1,10.87,1l-2.55,27.66A5.46,5.46,0,0,1,256.15,356.9Z"/><path class="cls-4" d="M282,353.62a5.45,5.45,0,0,1-5.46-5.43l-.16-33.9a5.45,5.45,0,0,1,5.43-5.48h0a5.46,5.46,0,0,1,5.46,5.43l.16,33.9a5.46,5.46,0,0,1-5.44,5.48Z"/><path class="cls-4" d="M282.42,213.14a5.76,5.76,0,0,1-.82-.06L260.7,210a5.46,5.46,0,1,1,1.62-10.8l20.9,3.13a5.46,5.46,0,0,1-.8,10.86Z"/><path class="cls-4" d="M209.28,283.66a5.46,5.46,0,0,1-3.12-10l23-15.93a5.46,5.46,0,0,1,6.21,9l-23,15.92A5.42,5.42,0,0,1,209.28,283.66Z"/><path class="cls-4" d="M240.81,270.21a5.46,5.46,0,0,1-5.4-4.71l-9.19-66A5.46,5.46,0,1,1,237,198l9.18,66a5.46,5.46,0,0,1-4.65,6.16A6.61,6.61,0,0,1,240.81,270.21Z"/><path class="cls-4" d="M215.66,260.37a5.46,5.46,0,0,1-5.39-4.65l-7.34-48.79a5.46,5.46,0,0,1,10.8-1.63l7.34,48.8a5.47,5.47,0,0,1-4.59,6.21A5.76,5.76,0,0,1,215.66,260.37Z"/><path class="cls-4" d="M192.46,265.54a5.46,5.46,0,0,1-3.46-9.69l13.83-11.28a5.46,5.46,0,0,1,6.9,8.46L195.9,264.31A5.4,5.4,0,0,1,192.46,265.54Z"/><path class="cls-5" d="M306.63,511.55A251.66,251.66,0,0,1,265,515C126.93,515,15,403.07,15,265S126.93,15,265,15a251.81,251.81,0,0,1,41.56,3.44"/><path class="cls-6" d="M263.29,84.92c-98.31.62-178.85,81.68-178.85,180,0,98.75,81.26,180,180,180s180-81.25,180-180v249s-50,72-175.26,72c-132.74,0-184.74-72-184.74-72"/></g></g></svg>