<svg xmlns="http://www.w3.org/2000/svg" xmlns:xlink="http://www.w3.org/1999/xlink" viewBox="0 0 845.69 756.33"><defs><style>.cls-1,.cls-6,.cls-7{fill:none;}.cls-2{fill:#f26c53;}.cls-3{fill:#2b3149;}.cls-4{fill:#90a77b;}.cls-5{fill:url(#Nova_amostra_de_padrão_3);}.cls-6{stroke-linejoin:round;}.cls-6,.cls-7{stroke-width:30px;stroke:url(#Nova_amostra_de_padrão_3-37);}.cls-7{stroke-linejoin:bevel;}.cls-8{fill:url(#Nova_amostra_de_padrão_3-37);}.cls-9{fill:url(#Nova_amostra_de_padrão_2);}</style><pattern id="Nova_amostra_de_padrão_3" data-name="Nova amostra de padrão 3" width="48" height="48" patternTransform="translate(0 -22)" patternUnits="userSpaceOnUse" viewBox="0 0 48 48"><rect class="cls-1" width="48" height="48"/><rect class="cls-3" width="48" height="48"/></pattern><pattern id="Nova_amostra_de_padrão_3-37" data-name="Nova amostra de padrão 3" width="48" height="48" patternTransform="translate(-20 -22)" patternUnits="userSpaceOnUse" viewBox="0 0 48 48"><rect class="cls-1" width="48" height="48"/><rect class="cls-3" width="48" height="48"/></pattern><pattern id="Nova_amostra_de_padrão_2" data-name="Nova amostra de padrão 2" width="48" height="48" patternTransform="translate(-20 -22)" patternUnits="userSpaceOnUse" viewBox="0 0 48 48"><rect class="cls-1" width="48" height="48"/><rect class="cls-2" width="48" height="48"/></pattern></defs><g id="Camada_2" data-name="Camada 2"><g id="Camada_1-2" data-name="Camada 1"><path class="cls-4" d="M346,198.93c33-22,80.06,8.37,99-12,20.71-22.27,43.09-19.45,62-15,55.8,13.15,52.92,96,11,128-70.91,54.15-11.72,58-104,58-48.24,0-74-22-40-69C395.53,259.17,298.9,230.33,346,198.93Z" transform="translate(-3.05)"/><path class="cls-5" d="M435.06,376.74a5.46,5.46,0,0,1-.48-10.9,116.63,116.63,0,0,0,41.82-14.07,92.5,92.5,0,0,0,30-26.58,81.4,81.4,0,0,1-42.38-9.3c-14.14-7.53-26.1-19.53-34.59-34.7a108.14,108.14,0,0,1-13.38-56.56c.85-20.77,7.65-39.21,19.63-53.33a5.45,5.45,0,0,1,3.61-1.9c20.66-2.1,46.46,9,65.73,28.26a102.8,102.8,0,0,1,23.16,35,96.47,96.47,0,0,1,6.23,45.67c-2.1,20.56-8.61,38.55-19.36,53.49a103.83,103.83,0,0,1-33.62,29.69,125.13,125.13,0,0,1-45.87,15.24A4.19,4.19,0,0,1,435.06,376.74Zm1.8-188.07C423,213.37,423.39,248,439,275.86c15.42,27.54,41.67,41.22,72.51,38-.74-11.22-9.81-20.62-21.86-33.1C471.37,261.89,446.93,236.58,436.86,188.67Zm9.47-8.56c8.51,48.94,32.06,73.33,51.13,93.08,8.85,9.16,17,17.56,21.41,26.91a111.85,111.85,0,0,0,4.67-22.92c3.66-36-14.87-60.42-26.24-71.79C482.38,190.47,462.65,180.83,446.33,180.11Z" transform="translate(-3.05)"/><path class="cls-5" d="M424.74,359.63c-1.5,0-3,0-4.5-.13-16.71-.92-33.86-7-51-18a5.87,5.87,0,0,1-3.2-6.34c7-31,21.07-72,61.71-71.41A5.46,5.46,0,0,1,433,268c2.38,10.35,18.63,29.17,21.68,31.64a5.44,5.44,0,0,1,2.06,4.61c-.79,13.22-15.75,19.23-20.67,21.21-10.59,4.26-24.62,7.42-39.47,10.78-3.47.78-7,1.57-10.54,2.4,24.12,12.37,47.26,13.45,68.94,3.2a86.22,86.22,0,0,0,30.09-24,5.46,5.46,0,0,1,8.86,6.39,95.93,95.93,0,0,1-33.84,27.28A81.08,81.08,0,0,1,424.74,359.63Zm-1-84.89c-21.38,1.46-35.5,18.51-45,54.36,5.18-1.25,10.35-2.41,15.41-3.56,23.32-5.26,47.37-10.69,51.15-19.84C439.78,299.92,428.23,286.07,423.73,274.74Z" transform="translate(-3.05)"/><path class="cls-5" d="M392.74,290.89a5.82,5.82,0,0,1-.92-.08,63.88,63.88,0,0,1-26.09-12.07c-11.52-9-24.52-26.18-21.08-57a5.44,5.44,0,0,1,1.82-3.59c17.61-16.31,41.2-26.25,60.13-25.33,9.3.46,16.77,3.58,21.59,9a5.45,5.45,0,0,1,1.27,4.7c-3.29,16.26-5.27,34.61,2.52,58.58a5.46,5.46,0,0,1-4.58,7.11c-11.25,1.26-28-2.35-42.58-9.19-9.08-4.25-20.16-11-29-21.34a44,44,0,0,0,16.66,28.45,53.07,53.07,0,0,0,21.19,9.91,5.46,5.46,0,0,1-.9,10.84Zm-36-67.26c13.07,25.88,45.51,36.43,62.77,37.75-5.69-21.5-4.23-38.67-1.33-54-3.57-2.66-8.41-3.47-12.11-3.65C391.14,203,371.74,210.9,356.73,223.63Z" transform="translate(-3.05)"/><path class="cls-5" d="M457.46,231.7a5.48,5.48,0,0,1-5.2-7.14l14.56-45.13a5.46,5.46,0,1,1,10.39,3.35l-14.56,45.13A5.47,5.47,0,0,1,457.46,231.7Z" transform="translate(-3.05)"/><path class="cls-5" d="M472,258.27a5.34,5.34,0,0,1-2.26-.5,5.46,5.46,0,0,1-2.7-7.23l24.75-54.31a5.46,5.46,0,1,1,9.93,4.53L477,255.07A5.46,5.46,0,0,1,472,258.27Z" transform="translate(-3.05)"/><path class="cls-5" d="M491.3,280.1a5.4,5.4,0,0,1-2.51-.61,5.46,5.46,0,0,1-2.33-7.36L513,220.81a5.46,5.46,0,0,1,9.7,5l-26.57,51.32A5.45,5.45,0,0,1,491.3,280.1Z" transform="translate(-3.05)"/><path class="cls-5" d="M450.9,305.58a5.46,5.46,0,0,1-.93-10.84l53.29-9.21a5.46,5.46,0,1,1,1.86,10.76l-53.29,9.21A5.84,5.84,0,0,1,450.9,305.58Z" transform="translate(-3.05)"/><path class="cls-5" d="M430.52,274.64a5.46,5.46,0,0,1-.26-10.91l53.14-2.55a5.46,5.46,0,0,1,.52,10.91l-53.14,2.55Z" transform="translate(-3.05)"/><path class="cls-5" d="M466.92,251a6.36,6.36,0,0,1-.86-.07l-45.5-7.28a5.46,5.46,0,1,1,1.72-10.78l45.5,7.27a5.46,5.46,0,0,1-.86,10.86Z" transform="translate(-3.05)"/><path class="cls-5" d="M437.43,324.14a5.47,5.47,0,0,1-3.5-1.27L391.35,287.2a5.46,5.46,0,1,1,7-8.37l42.58,35.67a5.46,5.46,0,0,1-3.51,9.64Z" transform="translate(-3.05)"/><path class="cls-5" d="M413.84,329.86a5.46,5.46,0,0,1-3.4-1.19l-27.72-22.1a5.46,5.46,0,1,1,6.8-8.54l27.73,22.1a5.46,5.46,0,0,1-3.41,9.73Z" transform="translate(-3.05)"/><path class="cls-5" d="M421.43,356.9l-.51,0a5.46,5.46,0,0,1-4.93-5.94l2.54-27.66a5.46,5.46,0,1,1,10.88,1l-2.55,27.66A5.46,5.46,0,0,1,421.43,356.9Z" transform="translate(-3.05)"/><path class="cls-5" d="M447.26,353.62a5.46,5.46,0,0,1-5.46-5.43l-.16-33.9a5.46,5.46,0,0,1,5.44-5.48h0a5.45,5.45,0,0,1,5.46,5.43l.16,33.9a5.45,5.45,0,0,1-5.43,5.48Z" transform="translate(-3.05)"/><path class="cls-5" d="M447.69,213.14a5.52,5.52,0,0,1-.81-.06L426,210a5.46,5.46,0,1,1,1.62-10.8l20.9,3.13a5.46,5.46,0,0,1-.81,10.86Z" transform="translate(-3.05)"/><path class="cls-5" d="M374.55,283.66a5.46,5.46,0,0,1-3.11-10l23-15.93a5.46,5.46,0,0,1,6.22,9l-23,15.92A5.43,5.43,0,0,1,374.55,283.66Z" transform="translate(-3.05)"/><path class="cls-5" d="M406.08,270.21a5.46,5.46,0,0,1-5.4-4.71l-9.18-66a5.46,5.46,0,1,1,10.81-1.5l9.19,66a5.47,5.47,0,0,1-4.66,6.16A6.33,6.33,0,0,1,406.08,270.21Z" transform="translate(-3.05)"/><path class="cls-5" d="M380.94,260.37a5.47,5.47,0,0,1-5.4-4.65l-7.33-48.79A5.46,5.46,0,0,1,379,205.3l7.33,48.8a5.46,5.46,0,0,1-4.59,6.21A5.52,5.52,0,0,1,380.94,260.37Z" transform="translate(-3.05)"/><path class="cls-5" d="M357.73,265.54a5.46,5.46,0,0,1-3.45-9.69l13.83-11.28A5.46,5.46,0,1,1,375,253l-13.83,11.28A5.42,5.42,0,0,1,357.73,265.54Z" transform="translate(-3.05)"/><path class="cls-6" d="M471.9,511.55A251.45,251.45,0,0,1,430.28,515c-138.08,0-250-111.93-250-250S292.2,15,430.28,15a251.9,251.9,0,0,1,41.56,3.44" transform="translate(-3.05)"/><path class="cls-7" d="M428.57,84.92c-98.31.62-178.85,81.68-178.85,180,0,98.75,81.25,180,180,180s180-81.25,180-180v249s-50,72-175.27,72c-132.73,0-184.73-72-184.73-72" transform="translate(-3.05)"/><path class="cls-8" d="M34.08,688c-1.79,6-6.26,10.62-14.32,10.62-10.94,0-16.71-8.71-16.71-19.44,0-10.29,5.66-19.65,16.77-19.65,8.22,0,13.06,4.57,14.32,10.94H31.2c-1.75-5-5-8.22-11.55-8.22-9.47,0-13.44,8.66-13.44,16.88s3.92,16.77,13.66,16.77c6.21,0,9.37-3.22,11.27-7.9Z" transform="translate(-3.05)"/><path class="cls-8" d="M76.32,685l-4.84,13.17h-3l14-38.11H86l14.59,38.11H97.34l-5-13.17ZM91.4,682.3C87.16,671,85,665.53,84.22,663h-.06c-.92,2.88-3.37,9.63-6.8,19.33Z" transform="translate(-3.05)"/><path class="cls-8" d="M170.77,680.66c0-7.46.06-14.59.22-18.4h-.16c-1.53,5.12-9.26,23.9-14.1,35.93h-2.89c-3.65-9.31-11.65-30.21-13.39-36h-.11c.27,4.35.38,13.23.38,19.76v16.22h-2.94V660.08h4.41c5.23,13.07,11.81,30.16,13.23,34.47h.11c.87-2.78,8.49-21.78,13.83-34.47h4.35v38.11h-2.94Z" transform="translate(-3.05)"/><path class="cls-8" d="M218.35,660.08v38.11h-2.94V660.08Z" transform="translate(-3.05)"/><path class="cls-8" d="M260.05,660.08H263v35.39h20.47l-.55,2.72H260.05Z" transform="translate(-3.05)"/><path class="cls-8" d="M319.82,660.08h2.94v35.39h20.47l-.54,2.72H319.82Z" transform="translate(-3.05)"/><path class="cls-8" d="M385.8,685,381,698.19h-3l14-38.11h3.48L410,698.19h-3.21L401.86,685Zm15.08-2.72c-4.25-11.33-6.43-16.77-7.19-19.33h-.05c-.93,2.88-3.38,9.63-6.81,19.33Z" transform="translate(-3.05)"/><path class="cls-8" d="M521.29,698.19h-2.45c-.21-.43-.32-2.39-.38-6.09-1.36,2.61-4.35,6.53-12.3,6.53-10.94,0-16.55-8.33-16.55-19.17,0-11.37,6-19.92,17.15-19.92,8.22,0,13.66,4.3,14.86,11.32h-2.94c-1.63-5.39-5.39-8.6-12-8.6-9.53,0-13.88,7.4-13.88,17,0,8.71,4.19,16.61,13.5,16.61,9.53,0,12.19-6.21,12.19-14.65v-.43h-12.3V678.1h15.13Z" transform="translate(-3.05)"/><path class="cls-8" d="M564.57,660.08v23.09c0,10.12,5.71,12.74,11.11,12.74,6.36,0,11.1-2.67,11.1-12.74V660.08h3V683c0,11.93-6.32,15.63-14.21,15.63-7.52,0-14.05-4.08-14.05-15.14V660.08Z" transform="translate(-3.05)"/><path class="cls-8" d="M653.3,679.46H633.87v16h21.28l-.43,2.72H630.93V660.08h23.35v2.73H633.87v13.93H653.3Z" transform="translate(-3.05)"/><path class="cls-8" d="M693.15,660.08h12.63c10.45,0,17.69,7.3,17.69,18.73s-7.07,19.38-17.74,19.38H693.15Zm2.94,35.39h9.2c10.07,0,15-7.08,15-16.5,0-8.38-4.47-16.16-15-16.16h-9.2Z" transform="translate(-3.05)"/><path class="cls-8" d="M784.72,679.46H765.28v16h21.29l-.44,2.72H762.34V660.08h23.35v2.73H765.28v13.93h19.44Z" transform="translate(-3.05)"/><path class="cls-8" d="M825.16,688c1.14,5.06,4.52,8.06,10.78,8.06,7,0,9.64-3.49,9.64-7.63,0-4.3-1.91-7-10.29-9-8.06-2-11.55-4.63-11.55-10.13,0-5,3.65-9.69,11.82-9.69,8.38,0,11.92,5.12,12.41,9.74h-3.05c-.87-4.08-3.54-7-9.52-7-5.5,0-8.5,2.56-8.5,6.81s2.51,5.82,9.53,7.56c10.72,2.67,12.3,7,12.3,11.55,0,5.6-4.08,10.45-12.9,10.45-9.53,0-13-5.55-13.72-10.67Z" transform="translate(-3.05)"/><path class="cls-9" d="M218.21,732.53h8.4c4.31,0,7.26,2.39,7.26,6.55s-2.92,6.73-7.49,6.73h-6.32v10.25h-1.85Zm1.85,11.6h6.49c3.79,0,5.37-2,5.37-5,0-3.16-2.08-4.94-5.24-4.94h-6.62Z" transform="translate(-3.05)"/><path class="cls-9" d="M291.22,732.53v23.53H289.4V732.53Z" transform="translate(-3.05)"/><path class="cls-9" d="M348.9,732.53h1.81v21.85h12.64l-.33,1.68H348.9Z" transform="translate(-3.05)"/><path class="cls-9" d="M421.57,747.93l-3,8.13h-1.85l8.64-23.53h2.15l9,23.53h-2l-3.06-8.13Zm9.31-1.69c-2.62-7-4-10.35-4.44-11.93h0c-.57,1.78-2.09,6-4.2,11.93Z" transform="translate(-3.05)"/><path class="cls-9" d="M493.3,734.21h-7.9v-1.68h17.68v1.68h-7.93v21.85H493.3Z" transform="translate(-3.05)"/><path class="cls-9" d="M571.15,744.5h-12v9.88h13.14l-.27,1.68H557.33V732.53h14.42v1.68h-12.6v8.61h12Z" transform="translate(-3.05)"/><path class="cls-9" d="M628.05,749.74c.71,3.13,2.79,5,6.66,5,4.3,0,5.95-2.16,5.95-4.71s-1.18-4.3-6.36-5.58c-5-1.24-7.12-2.86-7.12-6.25,0-3.1,2.25-6,7.29-6s7.36,3.16,7.67,6h-1.89c-.53-2.52-2.18-4.34-5.88-4.34-3.39,0-5.24,1.58-5.24,4.21s1.54,3.59,5.88,4.67c6.62,1.65,7.6,4.3,7.6,7.12,0,3.47-2.52,6.46-8,6.46-5.88,0-8-3.43-8.47-6.59Z" transform="translate(-3.05)"/></g></g></svg>